<svg width="20" height="20" viewBox="0 0 20 20" fill="none" xmlns="http://www.w3.org/2000/svg">
<path fill-rule="evenodd" clip-rule="evenodd" d="M9.0515 0.02344C7.10811 0.211462 5.18181 1.00166 3.67134 2.23048C3.22705 2.59195 2.52359 3.30099 2.16924 3.74462C1.27327 4.86626 0.539047 6.38345 0.234538 7.74233C0.0433114 8.59589 0 9.01083 0 9.98999C0 10.9691 0.0433114 11.3841 0.234538 12.2376C0.545692 13.6261 1.29907 15.165 2.22483 16.303C2.58629 16.7473 3.29534 17.4507 3.73897 17.8051C4.86081 18.7012 6.37924 19.436 7.73667 19.7396C8.83951 19.9863 8.46534 19.9726 14.4894 19.9869L19.9913 20V19.1584V18.3168L17.7792 18.3066L15.567 18.2965L16.0104 17.9651C17.8079 16.6214 19.1605 14.565 19.6941 12.3648C19.9164 11.4482 19.9701 10.9856 19.9696 9.98999C19.9694 9.49425 19.9477 8.95696 19.9198 8.75866C19.7567 7.59899 19.454 6.60224 18.9583 5.59239C18.4349 4.52638 17.8535 3.71703 17.0143 2.88633C16.1897 2.07014 15.4344 1.53379 14.3819 1.0171C13.396 0.533092 12.4833 0.247659 11.3916 0.0818792C10.9006 0.00733509 9.56306 -0.0260866 9.0515 0.02344ZM10.5707 1.72474C11.2541 1.88532 11.8979 2.39947 12.2076 3.03202C12.4185 3.46275 12.5003 3.84833 12.4729 4.28289C12.415 5.20177 11.9232 5.9587 11.1145 6.37348C10.7484 6.56131 10.421 6.63789 9.98433 6.63789C8.63953 6.63789 7.58102 5.63621 7.49576 4.28289C7.4684 3.84833 7.55018 3.46275 7.76107 3.03202C8.06639 2.40838 8.71098 1.88845 9.37891 1.72697C9.68975 1.65184 10.2559 1.65078 10.5707 1.72474ZM5.03522 5.7672C5.89578 5.98732 6.58439 6.65043 6.84261 7.50779C6.89437 7.67967 6.91282 7.86769 6.91161 8.2114C6.91016 8.61469 6.89566 8.7207 6.80814 8.9672C6.66851 9.36037 6.48963 9.64924 6.21147 9.93073C5.33848 10.8141 3.98367 10.9321 2.97977 10.2122C2.48165 9.85505 2.11624 9.2979 1.99166 8.70558C1.61382 6.90933 3.26559 5.31462 5.03522 5.7672ZM16.1367 5.7672C17.2429 6.05013 18.033 7.05349 18.0361 8.17955C18.0401 9.6046 16.7917 10.7803 15.3839 10.6773C13.871 10.5666 12.8084 9.20018 13.0864 7.72278C13.3498 6.32212 14.7633 5.41594 16.1367 5.7672ZM10.4278 9.2936C10.5104 9.35009 10.6247 9.46392 10.6818 9.54655C10.7716 9.67649 10.7857 9.73645 10.7857 9.98999C10.7857 10.2435 10.7716 10.3035 10.6818 10.4334C10.6247 10.5161 10.5104 10.6304 10.4278 10.6875C10.2978 10.7773 10.2379 10.7913 9.98433 10.7913C9.7308 10.7913 9.67083 10.7773 9.5409 10.6875C9.30386 10.5237 9.18843 10.3232 9.17041 10.0439C9.14726 9.68489 9.31218 9.3993 9.63866 9.23313C9.83939 9.13099 10.2341 9.16121 10.4278 9.2936ZM7.32623 12.3351C7.92036 12.5335 8.51816 13.0504 8.78381 13.5954C8.99259 14.0238 9.06174 14.3681 9.03527 14.848C8.99012 15.6667 8.61045 16.3329 7.92923 16.7885C6.84574 17.5132 5.36874 17.2665 4.57455 16.2283C3.49184 14.8129 4.19659 12.7636 5.92745 12.2944C6.30677 12.1916 6.95269 12.2104 7.32623 12.3351ZM14.0259 12.2952C15.7622 12.7393 16.4815 14.8068 15.3941 16.2283C14.8931 16.8832 14.0352 17.2702 13.2341 17.2027C12.2135 17.1167 11.3838 16.4643 11.0349 15.4733C10.9184 15.1423 10.8922 14.5294 10.9789 14.1639C11.2081 13.1985 12.0442 12.4024 12.9942 12.245C13.2658 12.2 13.7447 12.2233 14.0259 12.2952Z" fill="black"/>
</svg>
