<svg width="23" height="20" viewBox="0 0 23 20" fill="none" xmlns="http://www.w3.org/2000/svg">
<path d="M20.2995 10.4684L20.1491 10.6437L11.5 19.2928L2.85085 10.6437L2.70048 10.4684C1.71516 9.31965 1.20034 7.841 1.25918 6.32873C1.31802 4.81645 1.94619 3.38228 3.01779 2.31359C4.0894 1.24491 5.52528 0.620658 7.03771 0.565939C8.55013 0.511219 10.0274 1.03007 11.1734 2.01852L11.5 2.30019L11.8265 2.01852C12.9726 1.03007 14.4498 0.511219 15.9622 0.565939C17.4747 0.620658 18.9105 1.24491 19.9821 2.31359C21.0537 3.38228 21.6819 4.81645 21.7408 6.32873C21.7996 7.841 21.2848 9.31965 20.2995 10.4684Z" fill="#FA2E2E" stroke="black"/>
</svg>
