<svg width="16" height="17" viewBox="0 0 16 17" fill="none" xmlns="http://www.w3.org/2000/svg">
<path d="M0.666626 3.55176V7.55176H4.66663" stroke="black" stroke-linecap="round" stroke-linejoin="round"/>
<path d="M15.3334 14.2188V10.2188H11.3334" stroke="black" stroke-linecap="round" stroke-linejoin="round"/>
<path d="M13.66 6.88514C13.3218 5.92967 12.7472 5.07541 11.9896 4.40209C11.2321 3.72876 10.3163 3.25832 9.32777 3.03465C8.33922 2.81098 7.31012 2.84137 6.3365 3.12299C5.36287 3.40461 4.47646 3.92828 3.75996 4.64514L0.666626 7.55181M15.3333 10.2185L12.24 13.1251C11.5235 13.842 10.637 14.3657 9.66342 14.6473C8.6898 14.9289 7.6607 14.9593 6.67215 14.7356C5.6836 14.512 4.76783 14.0415 4.01027 13.3682C3.25271 12.6949 2.67807 11.8406 2.33996 10.8851" stroke="black" stroke-linecap="round" stroke-linejoin="round"/>
<path d="M6.03792 11.5518V5.73358H8.07201C8.47731 5.73358 8.81159 5.80365 9.07485 5.9438C9.33811 6.08206 9.53413 6.26861 9.66292 6.50346C9.79171 6.73642 9.8561 6.99494 9.8561 7.27903C9.8561 7.52903 9.81159 7.73547 9.72258 7.89835C9.63546 8.06123 9.51993 8.19002 9.37599 8.28471C9.23394 8.37941 9.07959 8.44949 8.91292 8.49494V8.55176C9.09095 8.56312 9.26993 8.62562 9.44985 8.73926C9.62978 8.85289 9.78034 9.01577 9.90156 9.22789C10.0228 9.44002 10.0834 9.69948 10.0834 10.0063C10.0834 10.298 10.0171 10.5603 9.88451 10.7932C9.75193 11.0262 9.54265 11.2108 9.25667 11.3472C8.97068 11.4836 8.59853 11.5518 8.14019 11.5518H6.03792ZM6.74247 10.9268H8.14019C8.60042 10.9268 8.92712 10.8377 9.12031 10.6597C9.31538 10.4798 9.41292 10.262 9.41292 10.0063C9.41292 9.80933 9.36273 9.62752 9.26235 9.46085C9.16197 9.29229 9.01898 9.15782 8.83337 9.05744C8.64777 8.95517 8.42807 8.90403 8.17428 8.90403H6.74247V10.9268ZM6.74247 8.29039H8.04928C8.2614 8.29039 8.45269 8.24873 8.62315 8.16539C8.7955 8.08206 8.93186 7.96464 9.03224 7.81312C9.13451 7.66161 9.18565 7.48358 9.18565 7.27903C9.18565 7.02335 9.09663 6.80649 8.9186 6.62846C8.74057 6.44854 8.45837 6.35858 8.07201 6.35858H6.74247V8.29039Z" fill="black"/>
</svg>
