<svg width="35" height="32" viewBox="0 0 35 32" fill="none" xmlns="http://www.w3.org/2000/svg">
<rect x="0.492188" width="34" height="32" rx="2" fill="black"/>
<path d="M9.88819 25.28V7.42H11.1042V25.28H9.88819ZM10.3632 23.152C9.34985 23.152 8.38085 23 7.45619 22.696C6.53152 22.3793 5.80319 21.974 5.27119 21.48L5.97419 19.998C6.48085 20.4413 7.12685 20.8087 7.91219 21.1C8.69752 21.3913 9.51452 21.537 10.3632 21.537C11.1359 21.537 11.7629 21.4483 12.2442 21.271C12.7255 21.0937 13.0802 20.853 13.3082 20.549C13.5362 20.2323 13.6502 19.8777 13.6502 19.485C13.6502 19.029 13.4982 18.6617 13.1942 18.383C12.9029 18.1043 12.5165 17.8827 12.0352 17.718C11.5665 17.5407 11.0472 17.3887 10.4772 17.262C9.90719 17.1353 9.33085 16.9897 8.74819 16.825C8.17819 16.6477 7.65252 16.426 7.17119 16.16C6.70252 15.894 6.32252 15.5393 6.03119 15.096C5.73985 14.64 5.59419 14.0573 5.59419 13.348C5.59419 12.664 5.77152 12.037 6.12619 11.467C6.49352 10.8843 7.05085 10.422 7.79819 10.08C8.55819 9.72533 9.52085 9.548 10.6862 9.548C11.4589 9.548 12.2252 9.64933 12.9852 9.852C13.7452 10.0547 14.4039 10.346 14.9612 10.726L14.3342 12.246C13.7642 11.866 13.1625 11.5937 12.5292 11.429C11.8959 11.2517 11.2815 11.163 10.6862 11.163C9.93885 11.163 9.32452 11.258 8.84319 11.448C8.36185 11.638 8.00719 11.8913 7.77919 12.208C7.56385 12.5247 7.45619 12.8793 7.45619 13.272C7.45619 13.7407 7.60185 14.1143 7.89319 14.393C8.19719 14.6717 8.58352 14.8933 9.05219 15.058C9.53352 15.2227 10.0592 15.3747 10.6292 15.514C11.1992 15.6407 11.7692 15.7863 12.3392 15.951C12.9219 16.1157 13.4475 16.331 13.9162 16.597C14.3975 16.863 14.7839 17.2177 15.0752 17.661C15.3665 18.1043 15.5122 18.6743 15.5122 19.371C15.5122 20.0423 15.3285 20.6693 14.9612 21.252C14.5939 21.822 14.0239 22.2843 13.2512 22.639C12.4912 22.981 11.5285 23.152 10.3632 23.152ZM17.798 23V9.7H23.764C25.2966 9.7 26.4746 10.0103 27.298 10.631C28.1213 11.239 28.533 12.075 28.533 13.139C28.533 13.861 28.3683 14.469 28.039 14.963C27.7223 15.457 27.2916 15.837 26.747 16.103C26.2023 16.369 25.6133 16.502 24.98 16.502L25.322 15.932C26.082 15.932 26.7533 16.065 27.336 16.331C27.9186 16.597 28.381 16.9897 28.723 17.509C29.065 18.0157 29.236 18.649 29.236 19.409C29.236 20.549 28.8053 21.4357 27.944 22.069C27.0953 22.6897 25.8286 23 24.144 23H17.798ZM19.698 21.461H24.068C25.1193 21.461 25.9236 21.2837 26.481 20.929C27.0383 20.5743 27.317 20.017 27.317 19.257C27.317 18.4843 27.0383 17.9207 26.481 17.566C25.9236 17.2113 25.1193 17.034 24.068 17.034H19.527V15.495H23.593C24.5556 15.495 25.303 15.3177 25.835 14.963C26.367 14.6083 26.633 14.0763 26.633 13.367C26.633 12.6577 26.367 12.1257 25.835 11.771C25.303 11.4163 24.5556 11.239 23.593 11.239H19.698V21.461Z" fill="white"/>
</svg>
